<?xml version="1.0" encoding="UTF-8"?>
<!-- Netatmo Community — app icon. Glyph: Phosphor "house-line-fill" (MIT) -->
<svg xmlns="http://www.w3.org/2000/svg" viewBox="0 0 256 256" width="256" height="256">
  <rect width="256" height="256" rx="48" fill="#2B2B2B"/>
  <g transform="translate(32 32) scale(0.75)" fill="#FF7A00">
    <path d="M240,208H224V136l2.34,2.34A8,8,0,0,0,237.66,127L139.31,28.68a16,16,0,0,0-22.62,0L18.34,127a8,8,0,0,0,11.32,11.31L32,136v72H16a8,8,0,0,0,0,16H240a8,8,0,0,0,0-16Zm-88,0H104V160a4,4,0,0,1,4-4h40a4,4,0,0,1,4,4Z"/>
  </g>
</svg>
