<?xml version="1.0" encoding="UTF-8"?>
<!-- Netatmo Community — landscape store image (aspect 250:175 ≈ 10:7) -->
<svg xmlns="http://www.w3.org/2000/svg" viewBox="0 0 1000 700" width="1000" height="700">
  <defs>
    <linearGradient id="bg" x1="0" y1="0" x2="1" y2="1">
      <stop offset="0" stop-color="#1f1f1f"/>
      <stop offset="1" stop-color="#2b2b2b"/>
    </linearGradient>
  </defs>
  <rect width="1000" height="700" rx="48" fill="url(#bg)"/>
  <!-- Badge -->
  <rect x="120" y="190" width="320" height="320" rx="48" fill="#FF7A00"/>
  <g transform="translate(120 190) scale(1.25)" fill="#1f1f1f">
    <path d="M240,208H224V136l2.34,2.34A8,8,0,0,0,237.66,127L139.31,28.68a16,16,0,0,0-22.62,0L18.34,127a8,8,0,0,0,11.32,11.31L32,136v72H16a8,8,0,0,0,0,16H240a8,8,0,0,0,0-16Zm-88,0H104V160a4,4,0,0,1,4-4h40a4,4,0,0,1,4,4Z"/>
  </g>
  <!-- Wordmark -->
  <g font-family="'Helvetica Neue', Arial, sans-serif" fill="#ffffff">
    <text x="490" y="330" font-size="72" font-weight="700">Netatmo</text>
    <text x="490" y="410" font-size="48" font-weight="400" fill="#FF7A00">Community</text>
    <text x="490" y="470" font-size="28" font-weight="300" fill="#9a9a9a">Cameras · Doorbell · Flow</text>
  </g>
</svg>
